<svg xmlns="http://www.w3.org/2000/svg" xmlns:xlink="http://www.w3.org/1999/xlink" width="500" zoomAndPan="magnify" viewBox="0 0 375 374.999991" height="500" preserveAspectRatio="xMidYMid meet" version="1.0"><defs><clipPath id="dbe970ae23"><path d="M 122.046875 112.5 L 253 112.5 L 253 262.5 L 122.046875 262.5 Z M 122.046875 112.5 " clip-rule="nonzero"/></clipPath><clipPath id="0890e73fa5"><path d="M 0.046875 1 L 130 1 L 130 150 L 0.046875 150 Z M 0.046875 1 " clip-rule="nonzero"/></clipPath><clipPath id="ca35ebbc77"><path d="M 0.046875 0.5 L 130.945312 0.5 L 130.945312 150.5 L 0.046875 150.5 Z M 0.046875 0.5 " clip-rule="nonzero"/></clipPath><clipPath id="90ba0d8524"><rect x="0" width="131" y="0" height="151"/></clipPath></defs><g clip-path="url(#dbe970ae23)"><g transform="matrix(1, 0, 0, 1, 122, 112)"><g clip-path="url(#90ba0d8524)"><g clip-path="url(#0890e73fa5)"><path fill="#f9b132" d="M 64.675781 1.847656 C 28.578125 7.171875 0.886719 37.964844 0.886719 75.144531 C 0.886719 116.089844 34.445312 149.273438 75.832031 149.273438 C 96.945312 149.273438 116.007812 140.617188 129.632812 126.71875 C 125.996094 127.265625 122.265625 127.550781 118.472656 127.550781 C 77.085938 127.550781 43.527344 94.355469 43.527344 53.421875 C 43.527344 33.363281 51.585938 15.1875 64.675781 1.847656 Z M 64.675781 1.847656 " fill-opacity="1" fill-rule="nonzero"/></g><g clip-path="url(#ca35ebbc77)"><path fill="#3a322b" d="M 18.34375 25.769531 C 30.25 12.21875 46.640625 3.308594 64.496094 0.671875 C 65 0.597656 65.5 0.851562 65.730469 1.308594 C 65.964844 1.761719 65.878906 2.316406 65.523438 2.679688 C 52.109375 16.363281 44.71875 34.386719 44.71875 53.421875 C 44.71875 93.636719 77.804688 126.355469 118.472656 126.355469 C 122.125 126.355469 125.820312 126.085938 129.457031 125.546875 C 129.964844 125.472656 130.460938 125.726562 130.695312 126.183594 C 130.925781 126.636719 130.84375 127.191406 130.484375 127.554688 C 116.007812 142.324219 96.597656 150.460938 75.832031 150.460938 C 33.847656 150.460938 -0.304688 116.675781 -0.304688 75.148438 C -0.304688 56.992188 6.320312 39.453125 18.34375 25.769531 Z M 75.832031 148.082031 C 94.773438 148.082031 112.546875 141.097656 126.269531 128.339844 C 123.671875 128.601562 121.0625 128.734375 118.472656 128.734375 C 76.488281 128.734375 42.335938 94.949219 42.335938 53.421875 C 42.335938 34.949219 49.074219 17.398438 61.382812 3.621094 C 27.335938 10.332031 2.078125 40.480469 2.078125 75.148438 C 2.078125 115.363281 35.164062 148.082031 75.832031 148.082031 Z M 75.832031 148.082031 " fill-opacity="1" fill-rule="nonzero"/></g></g></g></g></svg>