<svg width="229" height="230" viewBox="0 0 229 230" fill="none" xmlns="http://www.w3.org/2000/svg">
<circle cx="114.5" cy="115.455" r="108.5" fill="#141A21" stroke="#FFD440" stroke-width="12"/>
<path d="M111.453 25.4649L111.434 33.6729L108.95 33.6669L108.98 20.8869L110.96 20.8917L117.546 29.3316L117.566 20.9256L120.05 20.9316L120.02 33.6936L117.95 33.6886L111.453 25.4649Z" fill="#EBEBEB"/>
<path d="M117.877 200.39C117.792 200.308 117.634 200.197 117.403 200.057C117.185 199.917 116.912 199.784 116.586 199.657C116.272 199.531 115.928 199.423 115.554 199.334C115.18 199.233 114.801 199.185 114.417 199.192C113.745 199.204 113.238 199.339 112.894 199.598C112.563 199.856 112.401 200.213 112.409 200.668C112.416 201.016 112.528 201.29 112.748 201.491C112.968 201.691 113.295 201.859 113.729 201.995C114.164 202.131 114.707 202.278 115.357 202.434C116.201 202.623 116.931 202.862 117.549 203.151C118.178 203.428 118.658 203.803 118.991 204.277C119.335 204.739 119.515 205.36 119.529 206.14C119.541 206.824 119.425 207.414 119.182 207.91C118.939 208.395 118.598 208.791 118.159 209.099C117.721 209.407 117.221 209.638 116.66 209.792C116.098 209.934 115.499 210.011 114.863 210.022C114.227 210.033 113.59 209.979 112.952 209.858C112.314 209.738 111.699 209.563 111.106 209.333C110.514 209.092 109.969 208.802 109.471 208.462L110.53 206.301C110.64 206.407 110.834 206.548 111.114 206.723C111.393 206.886 111.732 207.054 112.131 207.227C112.53 207.387 112.964 207.524 113.434 207.635C113.904 207.747 114.379 207.798 114.859 207.79C115.531 207.778 116.039 207.655 116.383 207.42C116.727 207.186 116.895 206.859 116.887 206.439C116.881 206.055 116.737 205.758 116.457 205.547C116.178 205.336 115.79 205.157 115.296 205.009C114.801 204.85 114.216 204.681 113.54 204.501C112.732 204.287 112.056 204.047 111.511 203.781C110.966 203.503 110.557 203.15 110.286 202.723C110.014 202.296 109.872 201.758 109.861 201.11C109.845 200.234 110.036 199.499 110.433 198.904C110.843 198.296 111.398 197.836 112.101 197.524C112.803 197.199 113.586 197.029 114.45 197.013C115.05 197.003 115.615 197.058 116.145 197.181C116.688 197.303 117.195 197.468 117.667 197.676C118.138 197.883 118.562 198.11 118.939 198.355L117.877 200.39Z" fill="#EBEBEB"/>
<path d="M211.617 119.76L211.57 121.938L202.698 121.75L202.969 108.973L211.679 109.157L211.633 111.335L205.407 111.203L205.341 114.28L210.722 114.394L210.679 116.41L205.299 116.296L205.228 119.625L211.617 119.76Z" fill="#EBEBEB"/>
<path d="M23.0256 109.086L25.3294 109.115L26.7346 113.363L28.2632 109.152L30.549 109.18L28.2807 114.966L29.8498 119.054L33.5912 109.182L36.291 109.216L31.02 121.931L28.8782 121.904L26.6953 116.513L24.3965 121.848L22.2547 121.822L17.3205 108.979L19.9843 109.012L23.4963 118.975L25.1309 114.927L23.0256 109.086Z" fill="#EBEBEB"/>
<path d="M132.079 47.0211L115.468 42.1366C114.83 41.9545 114.17 41.9545 113.532 42.1366L96.9205 47.0211C95.4745 47.4423 94.4726 48.7972 94.4726 50.3001V72.5591C94.4726 74.1759 95.6225 75.5877 97.2052 75.9179L100.837 76.6579V74.3352V66.7296C100.837 66.1831 101.213 65.7163 101.748 65.6138L107.908 64.3728C108.238 64.3045 108.591 64.3842 108.853 64.6005C109.115 64.8168 109.274 65.147 109.274 65.4886V76.0431V78.3658L113.817 79.288C114.045 79.3336 114.272 79.3563 114.5 79.3563C114.728 79.3563 114.955 79.3336 115.183 79.288L131.795 75.9179C133.377 75.5877 134.527 74.1759 134.527 72.5591V50.3001C134.527 48.7972 133.525 47.4423 132.079 47.0211ZM114.5 58.2701L96.7497 61.8793V59.5567V57.1201V54.7975L114.272 51.2338C114.42 51.1996 114.58 51.1996 114.728 51.2338L132.25 54.7975V57.1201V59.5567V61.8793L114.5 58.2701Z" fill="#3C3C3C"/>
<path d="M114.45 51.1684L96.7413 54.7665L96.6825 61.9988L114.531 58.2778L132.269 61.9051L132.242 54.7699L114.45 51.1684Z" fill="#FECE84"/>
<path d="M108.226 64.0805L101.449 65.5847C100.991 65.6864 100.665 66.0932 100.666 66.5627L100.684 76.6341L109.342 78.3755L109.443 65.0643C109.448 64.4216 108.854 63.9412 108.226 64.0805Z" fill="#666464"/>
</svg>
