<svg width="229" height="229" viewBox="0 0 229 229" fill="none" xmlns="http://www.w3.org/2000/svg">
<circle cx="114.5" cy="114.5" r="108.5" fill="#1F1C2B" stroke="#3C3947" stroke-width="12"/>
<path d="M49.075 175.678L55.2549 170.276L56.8897 172.146L47.2675 180.557L45.9644 179.066L47.9594 168.548L41.6304 174.081L39.9956 172.21L49.6043 163.811L50.9666 165.37L49.075 175.678Z" fill="#EDEFF5"/>
<path d="M179.391 58.975C179.386 59.0937 179.406 59.2858 179.453 59.5513C179.492 59.808 179.572 60.1005 179.693 60.429C179.805 60.7485 179.951 61.0782 180.131 61.4178C180.301 61.7656 180.516 62.0814 180.774 62.3654C181.227 62.8622 181.663 63.1545 182.084 63.2421C182.497 63.3209 182.871 63.2067 183.209 62.8997C183.466 62.6654 183.597 62.3997 183.603 62.1027C183.608 61.8056 183.519 61.4489 183.334 61.0325C183.15 60.6162 182.902 60.1119 182.589 59.5196C182.175 58.7612 181.872 58.0548 181.682 57.4003C181.475 56.745 181.44 56.136 181.576 55.5733C181.696 55.0097 182.044 54.4654 182.621 53.9402C183.127 53.4797 183.646 53.1769 184.18 53.032C184.704 52.8951 185.227 52.8898 185.748 53.0161C186.269 53.1424 186.772 53.3656 187.258 53.6857C187.736 54.0138 188.188 54.413 188.617 54.8832C189.045 55.3535 189.424 55.8681 189.755 56.4273C190.085 56.9864 190.36 57.5641 190.578 58.1605C190.788 58.7649 190.93 59.3661 191.004 59.9642L188.681 60.5946C188.688 60.442 188.665 60.2031 188.612 59.8778C188.551 59.5606 188.453 59.1951 188.32 58.7811C188.177 58.3752 187.993 57.9588 187.766 57.532C187.54 57.1052 187.265 56.7143 186.942 56.3594C186.49 55.8625 186.062 55.5622 185.659 55.4584C185.256 55.3546 184.899 55.4441 184.589 55.7269C184.305 55.9855 184.176 56.2895 184.202 56.639C184.228 56.9885 184.349 57.3976 184.565 57.8664C184.772 58.3433 185.031 58.8948 185.342 59.521C185.714 60.2689 185.981 60.9355 186.14 61.5206C186.291 62.1137 186.295 62.6533 186.154 63.1394C186.012 63.6255 185.701 64.0866 185.222 64.5229C184.575 65.1127 183.896 65.4548 183.187 65.549C182.46 65.6424 181.748 65.5284 181.049 65.2069C180.342 64.8935 179.697 64.4174 179.116 63.7786C178.712 63.3349 178.381 62.8735 178.123 62.3942C177.857 61.9061 177.646 61.4163 177.491 60.9248C177.335 60.4334 177.226 59.9653 177.161 59.5206L179.391 58.975Z" fill="#EDEFF5"/>
<path d="M166.64 184.639L165.141 182.89L167.405 179.031L163.233 180.661L161.745 178.925L167.59 176.811L169.625 172.934L159.739 176.638L157.983 174.587L171.015 170.156L172.408 171.783L169.798 176.981L175.324 175.187L176.717 176.814L170.324 188.997L168.591 186.973L173.759 177.76L169.639 179.203L166.64 184.639Z" fill="#EDEFF5"/>
<path d="M52.6174 43.2292L54.2839 41.8268L59.9975 48.6167L50.219 56.8452L44.6097 50.1793L46.2762 48.777L50.2861 53.5423L52.6412 51.5605L49.176 47.4425L50.7185 46.1445L54.1838 50.2625L56.7317 48.1184L52.6174 43.2292Z" fill="#EDEFF5"/>
<path d="M125.806 19.4947L115.023 16.0951C114.609 15.9683 114.18 15.9683 113.766 16.0951L102.984 19.4947C102.045 19.7879 101.395 20.7309 101.395 21.7769V37.2691C101.395 38.3944 102.141 39.377 103.168 39.6068L105.526 40.1219V38.5053V33.2118C105.526 32.8315 105.77 32.5066 106.117 32.4352L110.115 31.5715C110.33 31.5239 110.559 31.5794 110.729 31.73C110.899 31.8805 111.002 32.1103 111.002 32.3481V39.694V41.3106L113.951 41.9525C114.099 41.9842 114.247 42 114.395 42C114.542 42 114.69 41.9842 114.838 41.9525L125.621 39.6068C126.648 39.377 127.395 38.3944 127.395 37.2691V21.7769C127.395 20.7309 126.744 19.7879 125.806 19.4947ZM114.395 27.324L102.873 29.836V28.2194V26.5236V24.907L114.247 22.4267C114.343 22.4029 114.446 22.4029 114.542 22.4267L125.916 24.907V26.5236V28.2194V29.836L114.395 27.324Z" fill="#3C3C3C"/>
<path d="M114.362 22.3812L102.867 24.8855L102.829 29.9192L114.415 27.3293L125.929 29.8539L125.911 24.8879L114.362 22.3812Z" fill="#FECE84"/>
<path d="M109.877 31.4738L106.183 32.3529C105.732 32.4603 105.414 32.8637 105.415 33.3275L105.426 40.1053L111.046 41.3173L111.109 32.4537C111.113 31.8049 110.508 31.3236 109.877 31.4738Z" fill="#666464"/>
</svg>
